<svg xmlns="http://www.w3.org/2000/svg" width="24" height="17.99" viewBox="0 0 24 17.99">
  <g>
    <path d="M.05,20.26A1.83,1.83,0,0,0,.23,20a5.09,5.09,0,0,0,.35-2.35C.52,17.07.48,16.52.42,16a2.3,2.3,0,0,1,.76-2.05c.43-.4.84-.81,1.26-1.22a.53.53,0,0,1,.1-.06s0,.09,0,.13l-.3,1.8c-.08.43-.17.85-.25,1.27,0,.2.08.35.24.29a.37.37,0,0,0,.17-.23c.12-.59.22-1.18.32-1.78.08-.44.14-.89.21-1.34a.58.58,0,0,1,.45-.44.55.55,0,0,1,.55.29,1,1,0,0,1,.09.38v4.09a2.91,2.91,0,0,1-.46,1.57,5.91,5.91,0,0,0-.76,1.68c-.06.26-.13.51-.19.76,0,.1-.07.12-.15.09L1,20.67l-.92-.32Z" transform="translate(-0.05 -3.23)"/>
    <path d="M5,12.57c-.1-.2-.17-.37-.26-.53a1.55,1.55,0,0,0-1.61-.65s-.09,0-.1-.06a.37.37,0,0,1,0-.15V4.79a1.5,1.5,0,0,1,.88-1.43,2.11,2.11,0,0,1,.51-.12.47.47,0,0,1,.17,0H19.5a1.49,1.49,0,0,1,1.19.52,1.38,1.38,0,0,1,.37.94v6.54c0,.18,0,.18-.18.14a1.34,1.34,0,0,0-.86.11,1.46,1.46,0,0,0-.81.79,1.25,1.25,0,0,1-.12.27,1.52,1.52,0,0,1,0-.21V5.43c0-.2,0-.2-.19-.2H5.24c-.19,0-.19,0-.19.2v6.9C5.05,12.4,5,12.47,5,12.57Z" transform="translate(-0.05 -3.23)"/>
    <path d="M12,17.24H5.21c-.12,0-.16,0-.16-.17V15.42c0-.14,0-.18.18-.18H18.88c.14,0,.18,0,.18.18,0,.55,0,1.11,0,1.66,0,.13,0,.17-.16.17Z" transform="translate(-0.05 -3.23)"/>
    <path d="M20.06,15.17V13a.59.59,0,0,1,.43-.59.56.56,0,0,1,.67.44c.07.52.13,1,.21,1.54s.2,1.05.31,1.57a.3.3,0,0,0,.15.21c.15.08.3-.06.26-.26l-.15-.76c-.05-.25-.11-.49-.15-.73-.09-.54-.17-1.08-.26-1.62a.38.38,0,0,1,0-.1.38.38,0,0,1,.1,0c.51.51,1,1,1.52,1.53a2,2,0,0,1,.52,1.62c-.05.6-.11,1.21-.17,1.81a4.37,4.37,0,0,0,.11,1.53c.1.33.22.66.33,1h0c0,.05.09.13.07.14a.78.78,0,0,1-.18.11l-1.42.5-.82.28c-.08,0-.13,0-.16-.09-.13-.49-.25-1-.42-1.46a6.75,6.75,0,0,0-.53-1,2.94,2.94,0,0,1-.45-1.44V15.17Z" transform="translate(-0.05 -3.23)"/>
    <path d="M12.45,9.86V7.63h1v5.23l-.28,0-.66-.05c-.09,0-.13,0-.16-.11-.21-.63-.43-1.25-.66-1.88a.6.6,0,0,0-.08-.16v2.15l-1,.09V7.62h.58c.45,0,.44,0,.59.42l.61,1.74,0,.09Z" transform="translate(-0.05 -3.23)"/>
  </g>
</svg>
